<svg viewBox="0 0 29 29" role="img" id="QRCodeSVG" xmlns="http://www.w3.org/2000/svg" xmlns:xlink="http://www.w3.org/1999/xlink" preserveAspectRatio="xMidYMid meet"><path fill="#FFF" d="M0,0 h29v29H0z" shape-rendering="crispEdges"/><path fill="#000" d="M0 0h7v1H0zM9 0h1v1H9zM11 0h2v1H11zM15 0h4v1H15zM20 0h1v1H20zM22,0 h7v1H22zM0 1h1v1H0zM6 1h1v1H6zM10 1h1v1H10zM13 1h1v1H13zM16 1h1v1H16zM19 1h2v1H19zM22 1h1v1H22zM28,1 h1v1H28zM0 2h1v1H0zM2 2h3v1H2zM6 2h1v1H6zM10 2h1v1H10zM15 2h1v1H15zM18 2h1v1H18zM20 2h1v1H20zM22 2h1v1H22zM24 2h3v1H24zM28,2 h1v1H28zM0 3h1v1H0zM2 3h3v1H2zM6 3h1v1H6zM10 3h1v1H10zM13 3h7v1H13zM22 3h1v1H22zM24 3h3v1H24zM28,3 h1v1H28zM0 4h1v1H0zM2 4h3v1H2zM6 4h1v1H6zM8 4h2v1H8zM11 4h1v1H11zM13 4h5v1H13zM19 4h1v1H19zM22 4h1v1H22zM24 4h3v1H24zM28,4 h1v1H28zM0 5h1v1H0zM6 5h1v1H6zM11 5h1v1H11zM14 5h2v1H14zM19 5h1v1H19zM22 5h1v1H22zM28,5 h1v1H28zM0 6h7v1H0zM8 6h1v1H8zM10 6h1v1H10zM12 6h1v1H12zM14 6h1v1H14zM16 6h1v1H16zM18 6h1v1H18zM20 6h1v1H20zM22,6 h7v1H22zM8 7h1v1H8zM10 7h1v1H10zM17 7h2v1H17zM20 7h1v1H20zM2 8h2v1H2zM6 8h4v1H6zM16 8h1v1H16zM21 8h2v1H21zM24 8h1v1H24zM1 9h1v1H1zM3 9h2v1H3zM7 9h1v1H7zM10 9h2v1H10zM13 9h3v1H13zM17 9h1v1H17zM22 9h4v1H22zM28,9 h1v1H28zM0 10h1v1H0zM4 10h3v1H4zM8 10h2v1H8zM11 10h1v1H11zM13 10h1v1H13zM18 10h1v1H18zM20 10h1v1H20zM22 10h1v1H22zM25 10h3v1H25zM0 11h1v1H0zM2 11h1v1H2zM9 11h3v1H9zM14 11h1v1H14zM16 11h1v1H16zM18 11h2v1H18zM25 11h1v1H25zM28,11 h1v1H28zM1 12h1v1H1zM3 12h2v1H3zM6 12h1v1H6zM8 12h1v1H8zM10 12h1v1H10zM12 12h2v1H12zM15 12h4v1H15zM21 12h1v1H21zM23 12h1v1H23zM26,12 h3v1H26zM0 13h3v1H0zM7 13h1v1H7zM9 13h1v1H9zM12 13h2v1H12zM19 13h1v1H19zM22 13h2v1H22zM25 13h2v1H25zM28,13 h1v1H28zM0 14h4v1H0zM5 14h2v1H5zM8 14h2v1H8zM11 14h1v1H11zM13 14h1v1H13zM16 14h1v1H16zM18 14h3v1H18zM22 14h4v1H22zM27,14 h2v1H27zM1 15h2v1H1zM4 15h2v1H4zM7 15h1v1H7zM9 15h3v1H9zM14 15h1v1H14zM17 15h1v1H17zM19 15h1v1H19zM21 15h2v1H21zM24 15h2v1H24zM1 16h1v1H1zM5 16h2v1H5zM8 16h1v1H8zM10 16h1v1H10zM12 16h3v1H12zM17 16h1v1H17zM21 16h1v1H21zM25 16h1v1H25zM27,16 h2v1H27zM1 17h1v1H1zM4 17h2v1H4zM7 17h3v1H7zM12 17h1v1H12zM14 17h1v1H14zM22 17h2v1H22zM26 17h1v1H26zM0 18h1v1H0zM3 18h1v1H3zM5 18h2v1H5zM8 18h1v1H8zM13 18h1v1H13zM15 18h4v1H15zM20 18h1v1H20zM22 18h1v1H22zM24 18h3v1H24zM2 19h1v1H2zM4 19h1v1H4zM8 19h1v1H8zM13 19h3v1H13zM18 19h9v1H18zM28,19 h1v1H28zM1 20h1v1H1zM3 20h4v1H3zM8 20h1v1H8zM12 20h2v1H12zM15 20h3v1H15zM19 20h7v1H19zM27,20 h2v1H27zM8 21h1v1H8zM10 21h6v1H10zM17 21h1v1H17zM20 21h1v1H20zM24 21h2v1H24zM27,21 h2v1H27zM0 22h7v1H0zM8 22h2v1H8zM11 22h1v1H11zM14 22h1v1H14zM18 22h3v1H18zM22 22h1v1H22zM24 22h1v1H24zM26 22h2v1H26zM0 23h1v1H0zM6 23h1v1H6zM9 23h2v1H9zM12 23h1v1H12zM14 23h1v1H14zM16 23h1v1H16zM20 23h1v1H20zM24 23h1v1H24zM0 24h1v1H0zM2 24h3v1H2zM6 24h1v1H6zM11 24h4v1H11zM17 24h2v1H17zM20 24h7v1H20zM28,24 h1v1H28zM0 25h1v1H0zM2 25h3v1H2zM6 25h1v1H6zM8 25h4v1H8zM15 25h3v1H15zM19 25h1v1H19zM24 25h2v1H24zM27 25h1v1H27zM0 26h1v1H0zM2 26h3v1H2zM6 26h1v1H6zM8 26h6v1H8zM15 26h2v1H15zM20 26h1v1H20zM23 26h1v1H23zM25 26h1v1H25zM28,26 h1v1H28zM0 27h1v1H0zM6 27h1v1H6zM9 27h1v1H9zM12 27h1v1H12zM14 27h5v1H14zM21 27h2v1H21zM24 27h1v1H24zM27 27h1v1H27zM0 28h7v1H0zM10 28h1v1H10zM12 28h2v1H12zM15 28h1v1H15zM18 28h6v1H18zM25 28h1v1H25zM27 28h1v1H27z" shape-rendering="crispEdges"/></svg>