<?xml version="1.0" encoding="UTF-8"?><svg id="The_Door" xmlns="http://www.w3.org/2000/svg" viewBox="0 0 2382.77 603.74"><defs><style>.cls-1{fill:#1d1d1b;}.cls-2{fill:#1e2023;}</style></defs><path class="cls-2" d="M645.23,46.46H213.23c-22.09,0-40,17.91-40,40v432c0,22.09,17.91,40,40,40h432c22.09,0,40-17.91,40-40V86.46c0-22.09-17.91-40-40-40ZM598.61,490.21c0,7.24-6.46,12.77-13.62,11.66l-309.45-48.35c-.6-.09-1.21-.14-1.82-.14h-43.3c-6.52,0-11.8-5.28-11.8-11.8v-.02c0-5.77,4.17-10.69,9.86-11.64l13.6-2.27c5.69-.95,9.86-5.87,9.86-11.64v-227.27c0-5.78-4.18-10.7-9.88-11.64l-12.76-2.1c-5.7-.94-9.88-5.87-9.88-11.64,0-6.52,5.28-11.8,11.8-11.8h42.51c.61,0,1.22-.05,1.82-.14l309.45-48.35c7.16-1.12,13.62,4.41,13.62,11.66v375.48ZM447.6,373.81l-10.76,71.06c-.74,4.89-4.94,8.5-9.89,8.5h-152.32V151.56h50.78c5.52,0,10,4.48,10,10v3.12c0,4.98-3.67,9.21-8.61,9.9l-20.86,2.93c-4.94.69-8.61,4.92-8.61,9.9v228.2c0,5.67,4.71,10.2,10.37,9.99l84.16-3.14c4-.15,7.53-2.67,8.96-6.41l18.82-49.05c1.74-4.54,6.49-7.16,11.26-6.23l8.72,1.71c5.26,1.03,8.77,6.02,7.97,11.31Z"/><path class="cls-1" d="M858.46,420.78v-.62c0-4.76,3.44-8.82,8.13-9.6l12.14-2.02c4.69-.78,8.13-4.84,8.13-9.6v-194.3c0-4.76-3.45-8.83-8.15-9.6l-11.43-1.88c-4.7-.77-8.15-4.84-8.15-9.6v-.61c0-5.37,4.36-9.73,9.73-9.73h79.43c5.37,0,9.73,4.36,9.73,9.73v.41c0,4.85-3.57,8.96-8.37,9.63l-15.71,2.21c-4.8.68-8.37,4.78-8.37,9.63v192.24c0,5.52,4.58,9.93,10.09,9.72l69.7-2.6c3.89-.15,7.33-2.6,8.72-6.24l15.39-40.13c1.69-4.41,6.31-6.97,10.95-6.06l5.31,1.04c5.11,1,8.53,5.85,7.75,11.01l-8.85,58.41c-.72,4.76-4.81,8.27-9.62,8.27h-166.84c-5.37,0-9.73-4.36-9.73-9.73Z"/><path class="cls-1" d="M1263.42,433.22c-17.36,0-32.32-2.26-44.88-6.76-12.57-4.51-22.91-11.38-31.02-20.62-8.11-9.24-14.09-20.88-17.92-34.91-3.83-14.03-5.75-30.57-5.75-49.61v-116.71c0-4.67-3.31-8.68-7.9-9.56l-8.89-1.7c-4.58-.88-7.9-4.89-7.9-9.56v-.82c0-5.37,4.36-9.73,9.73-9.73h72.67c5.37,0,9.73,4.36,9.73,9.73v.61c0,4.76-3.45,8.83-8.15,9.6l-11.43,1.88c-4.7.77-8.15,4.84-8.15,9.6v120.55c0,16.9,1.61,30.99,4.82,42.26,3.21,11.27,7.63,20.29,13.27,27.05,5.63,6.76,12.31,11.52,20.03,14.28,7.72,2.76,16.09,4.14,25.1,4.14,19.95,0,35.13-7.27,45.56-21.81,10.42-14.54,15.64-35.84,15.64-63.9v-122.51c0-4.72-3.39-8.76-8.04-9.58l-10.79-1.9c-4.65-.82-8.04-4.86-8.04-9.58v-.7c0-5.37,4.36-9.73,9.73-9.73h60.33c5.37,0,9.73,4.36,9.73,9.73v.76c0,4.7-3.35,8.72-7.97,9.57l-8.91,1.64c-4.62.85-7.97,4.87-7.97,9.57v121.21c0,18.71-2.4,34.82-7.18,48.35-4.79,13.52-11.33,24.68-19.61,33.47-8.28,8.79-18.06,15.27-29.33,19.44-11.27,4.17-23.44,6.25-36.51,6.25Z"/><path class="cls-1" d="M1586.56,434.4c-19.05,0-35.98-3.21-50.8-9.63-14.82-6.42-27.3-15.47-37.44-27.13s-17.86-25.67-23.16-42.01c-5.3-16.34-7.94-34.49-7.94-54.43s3.27-36.71,9.8-52.66c6.54-15.95,15.49-29.72,26.88-41.33,11.38-11.61,24.71-20.62,39.98-27.05,15.27-6.42,31.64-9.63,49.11-9.63,7.44,0,14.85.42,22.23,1.27,7.38.84,14.31,1.86,20.79,3.04,6.48,1.18,12.37,2.4,17.67,3.63,1.65.39,3.19.74,4.64,1.06,4.64,1.03,7.86,5.25,7.62,10l-2.15,42.09c-.26,5.17-4.54,9.23-9.72,9.23h-7.68c-4.46,0-8.35-3.03-9.44-7.36l-7.24-28.82c-.55-2.18-1.8-4.13-3.62-5.44-2.96-2.12-7-3.91-12.14-5.38-7.1-2.03-16.9-3.04-29.41-3.04-10.48,0-20.12,2.31-28.91,6.93-8.79,4.62-16.37,11.41-22.74,20.37-6.37,8.96-11.33,20.01-14.88,33.13-3.55,13.13-5.32,28.26-5.32,45.39,0,14.77,1.41,29.19,4.23,43.28,2.82,14.09,7.24,26.62,13.27,37.61,6.03,10.99,13.8,19.84,23.33,26.54,9.52,6.71,20.99,10.06,34.4,10.06,6.2,0,11.58-.31,16.14-.93,4.56-.62,8.54-1.46,11.92-2.54,3.38-1.07,6.25-2.42,8.62-4.06,1.83-1.26,3.49-2.64,4.98-4.14.8-.8,1.45-1.73,1.94-2.75l11.96-25.33c1.84-3.9,6.03-6.12,10.29-5.46l4.9.76c5.35.83,8.99,5.87,8.11,11.21l-5.47,32.95c-.67,4.05-3.81,7.25-7.85,7.97-2.3.41-4.56.98-6.78,1.7-4.34,1.41-9.24,2.93-14.71,4.56-5.47,1.63-11.81,3.1-19.02,4.4-7.21,1.29-16,1.94-26.37,1.94Z"/><path class="cls-1" d="M1769.91,420.78v-.48c0-4.82,3.53-8.91,8.29-9.62l14.01-2.09c4.77-.71,8.29-4.8,8.29-9.62v-194.19c0-4.82-3.53-8.91-8.29-9.62l-14.01-2.09c-4.77-.71-8.29-4.8-8.29-9.62v-.48c0-5.37,4.36-9.73,9.73-9.73h80.28c5.37,0,9.73,4.36,9.73,9.73v.49c0,4.81-3.52,8.9-8.28,9.62l-13.7,2.07c-4.76.72-8.28,4.81-8.28,9.62v194.4c0,4.73,3.41,8.78,8.07,9.59l14.12,2.45c4.66.81,8.07,4.85,8.07,9.59h0c0,5.37-4.36,9.73-9.73,9.73h-80.28c-5.37,0-9.73-4.36-9.73-9.73Z"/><path class="cls-1" d="M1975.57,420.78v-.57c0-4.78,3.47-8.85,8.19-9.61l12.03-1.93c4.72-.76,8.19-4.83,8.19-9.61v-194.49c0-4.73-3.41-8.78-8.07-9.59l-10.23-1.77c-4.66-.81-8.07-4.85-8.07-9.59v-.68c0-5.37,4.36-9.73,9.73-9.73h35.91c10.03,0,19.89-.42,29.58-1.27,9.69-.85,20.06-1.27,31.1-1.27,22.31,0,41.44,2.9,57.39,8.71,15.95,5.81,29.02,14.09,39.22,24.85,10.2,10.76,17.69,23.72,22.48,38.88,4.79,15.16,7.18,32.09,7.18,50.8,0,21.19-3.21,40.43-9.63,57.73-6.42,17.3-15.41,32.09-26.96,44.37-11.55,12.28-25.36,21.67-41.42,28.15-16.06,6.48-33.72,9.49-53,9.04-4.17-.11-8.59-.31-13.27-.59-4.68-.28-9.41-.59-14.2-.93-4.79-.34-9.55-.62-14.28-.85-4.73-.23-9.3-.34-13.69-.34h-38.45c-5.37,0-9.73-4.36-9.73-9.73ZM2042.85,201.5v200.53c0,4.72,3.39,8.76,8.04,9.59,3.58.64,7.24,1.02,10.98,1.15,6.59.23,13.72.23,21.38,0,12.28-.34,23.67-2.9,34.15-7.69,10.48-4.79,19.52-11.8,27.13-21.05,7.61-9.24,13.58-20.73,17.92-34.48,4.34-13.75,6.51-29.75,6.51-48.01,0-73.81-32.18-110.72-96.52-110.72-7.55,0-13.72.25-18.51.76-.83.09-1.63.17-2.39.26-4.94.54-8.68,4.7-8.68,9.67Z"/></svg>